<?xml version="1.0" encoding="UTF-8"?>
<svg width="28px" height="19px" viewBox="0 0 28 19" version="1.1" xmlns="http://www.w3.org/2000/svg" xmlns:xlink="http://www.w3.org/1999/xlink">
    <!-- Generator: Sketch 52.6 (67491) - http://www.bohemiancoding.com/sketch -->
    <title>Shape</title>
    <desc>Created with Sketch.</desc>
    <g id="Page-1" stroke="none" stroke-width="1" fill="none" fill-rule="evenodd">
        <g id="arrrows" fill="#000000" fill-rule="nonzero">
            <path d="M10.541016,0.6972656 C10.264877,0.70051 10.043648,0.926986 10.046875,1.203125 L10.040975,1.197265 L10.040975,8.498046 C10.042075,8.695421 10.15911,8.873701 10.339803,8.953124 C10.355123,8.959724 10.370773,8.965634 10.386673,8.970704 C10.402063,8.976004 10.417713,8.980604 10.433543,8.984374 C10.448393,8.987674 10.463383,8.990274 10.478463,8.992174 C10.496573,8.995174 10.514823,8.997074 10.533153,8.998074 L10.540953,8.998074 L17.93939,8.998074 C17.9729,8.997516 18.00627,8.993574 18.039,8.986354 C18.271346,8.939104 18.438567,8.735174 18.439391,8.498073 L18.439391,1.197292 L18.431591,1.205102 C18.435891,0.928957 18.215548,0.7015979 17.939403,0.6972895 L10.541016,0.6972656 Z M11.041016,1.6972656 L17.439453,1.6972656 L17.439453,7.998047 L11.041016,7.998047 L11.041016,1.6972656 Z M14.240234,3.5136719 L12.398438,5.232422 C11.912559,5.688187 12.595089,6.417519 13.082031,5.962891 L14.240234,4.880859 L15.398438,5.962891 C15.88538,6.417519 16.56791,5.688187 16.082031,5.232422 L14.240234,3.5136719 Z M1.1132812,10.027344 C0.8371503,10.027372 0.6133088,10.251213 0.6132812,10.527344 L0.6132812,17.828125 C0.614149,18.078701 0.8003443,18.289945 1.0488281,18.322266 C1.0682271,18.325366 1.0877921,18.327366 1.1074221,18.328166 L1.1132821,18.328166 L8.513673,18.328166 C8.789804,18.328138 9.013645,18.104297 9.013673,17.828166 L9.013673,10.527385 L9.005873,10.535185 C9.010173,10.259041 8.789831,10.031682 8.513686,10.027373 L1.1132812,10.027344 Z M10.560547,10.027344 C10.284416,10.027372 10.060575,10.251213 10.060547,10.527344 L10.060547,17.828125 C10.060575,18.104256 10.284416,18.328097 10.560547,18.328125 L17.958984,18.328125 C18.235115,18.328097 18.458956,18.104256 18.458984,17.828125 L18.458984,10.527344 C18.458984,10.261217 18.297967,10.027344 17.958984,10.027344 L10.560547,10.027344 Z M19.966797,10.027344 C19.554898,10.027344 19.466797,10.251209 19.466797,10.527344 L19.466797,17.828125 C19.467665,18.078701 19.65386,18.289945 19.902344,18.322266 C19.921744,18.325366 19.941314,18.327366 19.960934,18.328166 L19.966834,18.328166 L27.367225,18.328166 C27.643356,18.328138 27.867197,18.104297 27.867225,17.828166 L27.867225,10.527385 L27.859425,10.535185 C27.863725,10.259041 27.643383,10.031682 27.367238,10.027373 L19.966797,10.027344 Z M1.6132812,11.027344 L8.013672,11.027344 L8.013672,17.328125 L1.6132812,17.328125 L1.6132812,11.027344 Z M11.060547,11.027344 L17.458984,11.027344 L17.458984,17.328125 L11.060547,17.328125 L11.060547,11.027344 Z M20.466797,11.027344 L26.867188,11.027344 L26.867188,17.328125 L20.466797,17.328125 L20.466797,11.027344 Z M5.5859375,12.222656 C5.4562669,12.231356 5.3350778,12.290196 5.2480469,12.386719 L3.5292969,14.228516 L5.2480469,16.068359 C5.700485,16.598696 6.4763343,15.874709 5.9785156,15.386719 L4.8964844,14.228516 L5.9785156,13.068359 C6.2769445,12.757014 6.0676726,12.239215 5.6367188,12.222656 C5.6198028,12.221796 5.6028538,12.221796 5.5859378,12.222656 L5.5859375,12.222656 Z M22.828125,12.222656 C22.404329,12.251596 22.207341,12.762346 22.501953,13.068359 L23.583984,14.228516 L22.501953,15.386719 C22.004139,15.874709 22.779984,16.598692 23.232422,16.068359 L24.951172,14.228516 L23.232422,12.386719 C23.141622,12.286471 23.014084,12.227282 22.878906,12.222656 C22.861986,12.221796 22.845036,12.221796 22.828126,12.222656 L22.828125,12.222656 Z M15.753906,12.919922 C15.62222,12.923522 15.497287,12.979002 15.40625,13.074219 L14.259766,14.220703 L13.113281,13.074219 C13.018741,12.977569 12.889103,12.923315 12.753906,12.923828 C12.306829,12.925728 12.08673,13.468539 12.40625,13.78125 L14.259766,15.634766 L16.113281,13.78125 C16.444147,13.464976 16.211441,12.907247 15.753906,12.919922 Z" id="Shape"></path>
        </g>
    </g>
</svg>