<svg height="19" viewBox="0 0 28 19" width="28" xmlns="http://www.w3.org/2000/svg"><path d="m10.541016.6972656c-.276139.0032444-.497368.2297204-.494141.5058594l-.0059-.00586v7.300781c.0011.197375.118135.375655.298828.455078.01532.0066.03097.01251.04687.01758.01539.0053.03104.0099.04687.01367.01485.0033.02984.0059.04492.0078.01811.003.03636.0049.05469.0059h.0078 7.398437c.03351-.000558.06688-.0045.09961-.01172.232346-.04725.399567-.25118.400391-.488281v-7.300781l-.0078.00781c.0043-.276145-.216043-.5035041-.492188-.5078125zm.5 1h6.398437v6.3007814h-6.398437zm3.199218 1.8164063-1.841796 1.7187501c-.485879.455765.196651 1.185097.683593.730469l1.158203-1.082032 1.158204 1.082032c.486942.454628 1.169472-.274704.683593-.730469zm-13.1269528 6.5136721c-.2761309.000028-.4999724.223869-.5.5v7.300781c.0008678.250576.1870631.46182.4355469.494141.019399.0031.038964.0051.058594.0059h.00586 7.4003909c.276131-.000028.499972-.223869.5-.5v-7.300781l-.0078.0078c.0043-.276144-.216042-.503503-.492187-.507812zm9.4472658 0c-.276131.000028-.499972.223869-.5.5v7.300781c.000028.276131.223869.499972.5.5h7.398437c.276131-.000028.499972-.223869.5-.5v-7.300781c0-.266127-.161017-.5-.5-.5zm9.40625 0c-.411899 0-.5.223865-.5.5v7.300781c.000868.250576.187063.46182.435547.494141.0194.0031.03897.0051.05859.0059h.0059 7.400391c.276131-.000028.499972-.223869.5-.5v-7.300781l-.0078.0078c.0043-.276144-.216042-.503503-.492187-.507812zm-18.3535158 1h6.4003908v6.300781h-6.4003908zm9.4472658 0h6.398437v6.300781h-6.398437zm9.40625 0h6.400391v6.300781h-6.400391zm-14.8808595 1.195312c-.1296706.0087-.2508597.06754-.3378906.164063l-1.71875 1.841797 1.71875 1.839843c.4524381.530337 1.2282874-.19365.7304687-.68164l-1.0820312-1.158203 1.0820312-1.160157c.2984289-.311345.089157-.829144-.3417968-.845703-.016916-.00086-.033865-.00086-.050781 0zm17.2421875 0c-.423796.02894-.620784.53969-.326172.845703l1.082031 1.160157-1.082031 1.158203c-.497814.48799.278031 1.211973.730469.68164l1.71875-1.839843-1.71875-1.841797c-.0908-.100248-.218338-.159437-.353516-.164063-.01692-.00086-.03387-.00086-.05078 0zm-7.074219.697266c-.131686.0036-.256619.05908-.347656.154297l-1.146484 1.146484-1.146485-1.146484c-.09454-.09665-.224178-.150904-.359375-.150391-.447077.0019-.667176.544711-.347656.857422l1.853516 1.853516 1.853515-1.853516c.330866-.316274.09816-.874003-.359375-.861328z"/></svg>