<svg height="1224" viewBox="0 0 1536 1224" width="1536" xmlns="http://www.w3.org/2000/svg"><path d="m1079.5 1c-213.716256 0-387.5 173.752549-387.5 387.32536v448.34928c0 213.57281 173.783744 387.32536 387.5 387.32536 213.71626 0 387.5-173.75255 387.5-387.32536v-448.34928c0-213.570993-173.78374-387.32536-387.5-387.32536zm347.5 833.371654c0 192.787126-155.76187 349.628346-347.5 349.628346-191.738128 0-347.5-156.84122-347.5-349.628346v-238.371654h695zm0-274.371654h-329v-518c183.58564 9.7313241 329 161.506919 329 346.687278zm-1083.473893-91c-6.408634 0-12.324297-3.450493-15.282128-9.85855l-52.747993-112.880398-74.931728 69.00985c-4.929719 4.436348-12.324298 5.91513-18.239961 2.957565-5.915662-2.464637-10.352409-8.872695-10.352409-15.280752l-1.971888-384.9763787c0-6.4080575 3.943775-12.81611506 9.859438-15.28075257 5.915663-2.95756501 13.310241-1.97171 18.23996 2.46463751l294.797194 247.94253276c4.929719 4.436348 7.394578 11.337333 5.422691 17.74539-1.971888 6.408058-7.394579 11.337333-13.803213 11.83026l-101.059239 13.309043 52.747993 112.880398c1.971887 3.94342 1.971887 8.872695.492972 12.816115-1.478916 4.436347-4.436747 7.88684-8.873494 9.365622l-76.903616 35.983708c-2.46486 1.478782-4.929719 1.97171-7.394579 1.97171zm-62.820713-168.120894c.983403 0 1.966805 0 3.441909.492773 5.408714.985545 9.834025 4.434954 12.292531 9.362681l55.562241 118.26544 45.728215-21.681997-55.56224-118.265441c-2.458506-4.927726-1.966805-10.348226.491701-15.275952 2.458506-4.927727 7.375519-7.884363 12.784232-8.869908l85.556017-11.333772-237-199.57293 1.475104 309.954008 63.42946-58.639948c3.441909-2.956636 7.375519-4.434954 11.80083-4.434954z"/></svg>