<?xml version="1.0" encoding="UTF-8"?>
<svg width="1536px" height="1224px" viewBox="0 0 1536 1224" version="1.1" xmlns="http://www.w3.org/2000/svg" xmlns:xlink="http://www.w3.org/1999/xlink">
    <!-- Generator: Sketch 52.6 (67491) - http://www.bohemiancoding.com/sketch -->
    <title>Artboard</title>
    <desc>Created with Sketch.</desc>
    <g id="Artboard" stroke="none" stroke-width="1" fill="none" fill-rule="evenodd">
        <path d="M1079.5,1 C865.783744,1 692,174.752549 692,388.32536 L692,836.67464 C692,1050.24745 865.783744,1224 1079.5,1224 C1293.21626,1224 1467,1050.24745 1467,836.67464 L1467,388.32536 C1467,174.754367 1293.21626,1 1079.5,1 Z M1427,834.371654 C1427,1027.15878 1271.23813,1184 1079.5,1184 C887.761872,1184 732,1027.15878 732,834.371654 L732,596 L1427,596 L1427,834.371654 Z M1427,560 L1098,560 L1098,42 C1281.58564,51.7313241 1427,203.506919 1427,388.687278 L1427,560 Z M343.526107,469 C337.117473,469 331.20181,465.549507 328.243979,459.14145 L275.495986,346.261052 L200.564258,415.270902 C195.634539,419.70725 188.23996,421.186032 182.324297,418.228467 C176.408635,415.76383 171.971888,409.355772 171.971888,402.947715 L170,17.9713363 C170,11.5632788 173.943775,5.15522124 179.859438,2.69058373 C185.775101,-0.266981277 193.169679,0.718873726 198.099398,5.15522124 L492.896592,253.097754 C497.826311,257.534102 500.29117,264.435087 498.319283,270.843144 C496.347395,277.251202 490.924704,282.180477 484.51607,282.673404 L383.456831,295.982447 L436.204824,408.862845 C438.176711,412.806265 438.176711,417.73554 436.697796,421.67896 C435.21888,426.115307 432.261049,429.5658 427.824302,431.044582 L350.920686,467.02829 C348.455826,468.507072 345.990967,469 343.526107,469 Z M280.705394,300.879106 C281.688797,300.879106 282.672199,300.879106 284.147303,301.371879 C289.556017,302.357424 293.981328,305.806833 296.439834,310.73456 L352.002075,429 L397.73029,407.318003 L342.16805,289.052562 C339.709544,284.124836 340.201245,278.704336 342.659751,273.77661 C345.118257,268.848883 350.03527,265.892247 355.443983,264.906702 L441,253.57293 L204,54 L205.475104,363.954008 L268.904564,305.31406 C272.346473,302.357424 276.280083,300.879106 280.705394,300.879106 Z" id="Shape" fill="#000000" fill-rule="nonzero"></path>
    </g>
</svg>