<?xml version="1.0" encoding="UTF-8"?>
<svg width="84px" height="84px" viewBox="0 0 84 84" version="1.1" xmlns="http://www.w3.org/2000/svg" xmlns:xlink="http://www.w3.org/1999/xlink">
    <!-- Generator: Sketch 52.6 (67491) - http://www.bohemiancoding.com/sketch -->
    <title>Group</title>
    <desc>Created with Sketch.</desc>
    <g id="Page-1" stroke="none" stroke-width="1" fill="none" fill-rule="evenodd">
        <g id="click" fill="#000000">
            <g id="Group">
                <path d="M32.8,19.5 C33.6,19.5 34.3,18.8 34.3,18 L34.3,1.5 C34.3,0.7 33.6,0 32.8,0 C32,0 31.3,0.7 31.3,1.5 L31.3,18 C31.3,18.8 31.9,19.5 32.8,19.5 Z" id="Path"></path>
                <path d="M2.3,33.2 L18.8,33.2 C19.6,33.2 20.3,32.5 20.3,31.7 C20.3,30.9 19.6,30.2 18.8,30.2 L2.3,30.2 C1.5,30.2 0.8,30.9 0.8,31.7 C0.8,32.5 1.5,33.2 2.3,33.2 Z" id="Path"></path>
                <path d="M19.1,20.2 C19.4,20.5 19.8,20.6 20.2,20.6 C20.6,20.6 21,20.5 21.3,20.2 C21.9,19.6 21.9,18.7 21.3,18.1 L16,12.8 C15.4,12.2 14.5,12.2 13.9,12.8 C13.3,13.4 13.3,14.3 13.9,14.9 L19.1,20.2 Z" id="Path"></path>
                <path d="M45,20.8 C45.4,20.8 45.8,20.7 46.1,20.4 L51.4,15.1 C52,14.5 52,13.6 51.4,13 C50.8,12.4 49.9,12.4 49.3,13 L44,18.2 C43.4,18.8 43.4,19.7 44,20.3 C44.2,20.6 44.6,20.8 45,20.8 Z" id="Path"></path>
                <path d="M21.1,43.2 C20.5,42.6 19.6,42.6 19,43.2 L13.7,48.5 C13.1,49.1 13.1,50 13.7,50.6 C14,50.9 14.4,51 14.8,51 C15.2,51 15.6,50.9 15.9,50.6 L21.2,45.3 C21.7,44.7 21.7,43.8 21.1,43.2 Z" id="Path"></path>
                <path d="M61,50.5 L74,43.8 C74.5,43.5 74.9,42.9 74.8,42.3 C74.7,41.7 74.3,41.2 73.7,41 L31.9,29.3 C31.4,29.2 30.8,29.3 30.4,29.7 C30,30.1 29.9,30.6 30,31.2 L41.5,73.3 C41.7,73.9 42.2,74.3 42.8,74.4 C43.4,74.5 44,74.2 44.3,73.6 L51.1,60.7 L73.4,83 C73.7,83.3 74.1,83.4 74.5,83.4 C74.9,83.4 75.3,83.2 75.6,83 L83.5,75.1 C84.1,74.5 84.1,73.6 83.5,73 L61,50.5 Z M74.5,79.7 L51.8,57 C51.5,56.7 51.1,56.6 50.7,56.6 C50.6,56.6 50.5,56.6 50.5,56.6 C50,56.7 49.6,57 49.4,57.4 L43.5,68.8 L33.7,32.9 L69.3,42.9 L57.9,48.8 C57.5,49 57.2,49.4 57.1,49.9 C57,50.4 57.2,50.9 57.5,51.2 L80.2,74 L74.5,79.7 Z" id="Shape" fill-rule="nonzero"></path>
            </g>
        </g>
    </g>
</svg>