<?xml version="1.0" encoding="UTF-8"?>
<svg width="3072px" height="1224px" viewBox="0 0 3072 1224" version="1.1" xmlns="http://www.w3.org/2000/svg" xmlns:xlink="http://www.w3.org/1999/xlink">
    <!-- Generator: Sketch 52.6 (67491) - http://www.bohemiancoding.com/sketch -->
    <title>Artboard</title>
    <desc>Created with Sketch.</desc>
    <g id="Artboard" stroke="none" stroke-width="1" fill="none" fill-rule="evenodd">
        <g id="Group" transform="translate(0.000000, 1.000000)" fill="#000000" fill-rule="nonzero">
            <path d="M1136.5,0 C922.783744,0 749,173.752549 749,387.32536 L749,835.67464 C749,1049.24745 922.783744,1223 1136.5,1223 C1350.21626,1223 1524,1049.24745 1524,835.67464 L1524,387.32536 C1524,173.754367 1350.21626,0 1136.5,0 Z M1484,835.750079 C1484,1027.22573 1328.23813,1183 1136.5,1183 C944.761872,1183 789,1027.22573 789,835.750079 L789,599 L1484,599 L1484,835.750079 Z M1484,559 L1155,559 L1155,41 C1338.58564,50.7313241 1484,202.506919 1484,387.687278 L1484,559 Z M206.294671,732.016387 L163.688334,774.618704 L0.5730805,611.518874 L163.688335,448.419045 L206.294672,491.021361 L115.912984,581.394496 L723.626579,581.394497 L723.626579,641.643254 L115.912984,641.643253 L206.294671,732.016387 Z" id="Shape"></path>
            <path d="M2683.92692,0 C2470.21066,0 2296.42692,173.752549 2296.42692,387.32536 L2296.42692,835.67464 C2296.42692,1049.24745 2470.21066,1223 2683.92692,1223 C2897.64318,1223 3071.42692,1049.24745 3071.42692,835.67464 L3071.42692,387.32536 C3071.42692,173.754367 2897.64318,0 2683.92692,0 Z M3031.42692,835.750079 C3031.42692,1027.22573 2875.66505,1183 2683.92692,1183 C2492.18879,1183 2336.42692,1027.22573 2336.42692,835.750079 L2336.42692,599 L3031.42692,599 L3031.42692,835.750079 Z M3031.42692,559 L2702.42692,559 L2702.42692,41 C2886.01255,50.7313241 3031.42692,202.506919 3031.42692,387.687278 L3031.42692,559 Z M1753.72159,732.016388 L1711.11525,774.618705 L1548,611.518875 L1711.11525,448.419046 L1753.72159,491.021362 L1663.3399,581.394497 L2271.0535,581.394497 L2271.0535,641.643254 L1663.3399,641.643254 L1753.72159,732.016388 Z" id="Shape" transform="translate(2309.713460, 611.500000) scale(-1, 1) translate(-2309.713460, -611.500000) "></path>
        </g>
    </g>
</svg>