<?xml version="1.0" encoding="UTF-8"?>
<svg width="1224px" height="1224px" viewBox="0 0 1224 1224" version="1.1" xmlns="http://www.w3.org/2000/svg" xmlns:xlink="http://www.w3.org/1999/xlink">
    <!-- Generator: Sketch 52.6 (67491) - http://www.bohemiancoding.com/sketch -->
    <title>Artboard</title>
    <desc>Created with Sketch.</desc>
    <g id="Artboard" stroke="none" stroke-width="1" fill="none" fill-rule="evenodd">
        <g id="mousev" transform="translate(7.000000, 4.000000)" fill="#000000" fill-rule="nonzero">
            <path d="M825.010448,0.992126103 C612.678769,0.992126103 440.020896,173.751298 440.020896,386.103073 L440.020896,831.889053 C440.020896,1044.24083 612.678769,1217 825.010448,1217 C1037.34213,1217 1210,1044.24083 1210,831.889053 L1210,386.103073 C1210,173.753106 1037.34213,0.992126103 825.010448,0.992126103 Z M480,596.343531 L480,387.485807 C480,196.982902 634.742303,42 825.225373,42 C1015.70844,42 1170.45075,196.982902 1170.45075,387.485807 L1170.45075,623.033138 L1170.23582,623.033138 L1170.23582,831.890861 C1170.23582,1022.39377 1015.49352,1177.37667 825.010448,1177.37667 C634.527378,1177.37667 479.785075,1022.39377 479.785075,831.890861 L479.785075,596.343531 L480,596.343531 Z M156.602317,311.713717 L114,269.10738 L277.09983,105.992126 L440.199659,269.10738 L397.597343,311.713717 L307.224208,221.332029 L307.224208,829.045624 L246.975451,829.045624 L246.975451,221.332029 L156.602317,311.713717 Z M42.6023172,880.324034 L0,922.930371 L163.09983,1086.04562 L326.199659,922.930371 L283.597343,880.324034 L193.224208,970.705721 L193.224208,362.992126 L132.975452,362.992126 L132.975452,970.705721 L42.6023172,880.324034 Z M825.189988,188.986036 C796.139053,188.986036 772.59403,212.318263 772.59403,241.106642 L772.59403,393.950676 C772.59403,422.739055 796.139053,446.071282 825.189988,446.071282 C854.240926,446.071282 877.785949,422.739055 877.785949,393.950676 L877.785949,241.106642 C877.785949,212.318263 854.240926,188.986036 825.189988,188.986036 Z" id="Shape"></path>
        </g>
    </g>
</svg>