<?xml version="1.0" encoding="UTF-8"?>
<svg width="2195px" height="674px" viewBox="0 0 2195 674" version="1.1" xmlns="http://www.w3.org/2000/svg" xmlns:xlink="http://www.w3.org/1999/xlink">
    <!-- Generator: Sketch 52.6 (67491) - http://www.bohemiancoding.com/sketch -->
    <title>Group</title>
    <desc>Created with Sketch.</desc>
    <g id="Page-1" stroke="none" stroke-width="1" fill="none" fill-rule="evenodd">
        <g id="Group" fill="#000000" fill-rule="nonzero">
            <g id="mouseh">
                <path d="M666,0.646 C548.525,0.646 453,96.218 453,213.693 L453,460.306 C453,577.781 548.525,673.353 666,673.353 C783.475,673.353 879,577.781 879,460.306 L879,213.693 C879,96.219 783.475,0.646 666,0.646 Z M857,460.307 C857,565.695 771.387,651.433 666,651.433 C560.613,651.433 475,565.695 475,460.307 L475,330 L857,330 L857,460.307 Z M857,308 L676,308 L676,22.846 C777,28.203 857,111.754 857,213.694 L857,308 Z M145.445499,80.738546 L81.5454994,144.574474 L426,144.574474 L426,187.13176 L81.5454994,187.13176 L145.445499,250.967701 L115.32275,281.060213 L0,165.853117 L115.32275,50.646 L145.445499,80.738546 Z" id="Shape"></path>
            </g>
            <g id="mouseh" transform="translate(1755.500000, 337.000000) scale(-1, 1) translate(-1755.500000, -337.000000) translate(1316.000000, 0.000000)">
                <path d="M666,0.646 C548.525,0.646 453,96.218 453,213.693 L453,460.306 C453,577.781 548.525,673.353 666,673.353 C783.475,673.353 879,577.781 879,460.306 L879,213.693 C879,96.219 783.475,0.646 666,0.646 Z M857,460.307 C857,565.695 771.387,651.433 666,651.433 C560.613,651.433 475,565.695 475,460.307 L475,330 L857,330 L857,460.307 Z M857,308 L676,308 L676,22.846 C777,28.203 857,111.754 857,213.694 L857,308 Z M145.445499,80.738546 L81.5454994,144.574474 L426,144.574474 L426,187.13176 L81.5454994,187.13176 L145.445499,250.967701 L115.32275,281.060213 L0,165.853117 L115.32275,50.646 L145.445499,80.738546 Z" id="Shape"></path>
            </g>
        </g>
    </g>
</svg>