<svg height="1224" viewBox="0 0 3072 1224" width="3072" xmlns="http://www.w3.org/2000/svg"><g transform="translate(0 1)"><path d="m1136.5 0c-213.716256 0-387.5 173.752549-387.5 387.32536v448.34928c0 213.57281 173.783744 387.32536 387.5 387.32536 213.71626 0 387.5-173.75255 387.5-387.32536v-448.34928c0-213.570993-173.78374-387.32536-387.5-387.32536zm347.5 835.750079c0 191.475651-155.76187 347.249921-347.5 347.249921-191.738128 0-347.5-155.77427-347.5-347.249921v-236.750079h695zm0-276.750079h-329v-518c183.58564 9.7313241 329 161.506919 329 346.687278zm-1277.705329 173.016387-42.606337 42.602317-163.1152535-163.09983 163.1152545-163.099829 42.606337 42.602316-90.381688 90.373135 607.713595.000001v60.248757l-607.713595-.000001z"/><path d="m2683.92692 0c-213.71626 0-387.5 173.752549-387.5 387.32536v448.34928c0 213.57281 173.78374 387.32536 387.5 387.32536s387.5-173.75255 387.5-387.32536v-448.34928c0-213.570993-173.78374-387.32536-387.5-387.32536zm347.5 835.750079c0 191.475651-155.76187 347.249921-347.5 347.249921s-347.5-155.77427-347.5-347.249921v-236.750079h695zm0-276.750079h-329v-518c183.58563 9.7313241 329 161.506919 329 346.687278zm-1277.70533 173.016388-42.60634 42.602317-163.11525-163.09983 163.11525-163.099829 42.60634 42.602316-90.38169 90.373135h607.7136v60.248757h-607.7136z" transform="matrix(-1 0 0 1 4619.42692 0)"/></g></svg>