<svg height="1224" viewBox="0 0 1224 1224" width="1224" xmlns="http://www.w3.org/2000/svg"><path d="m825.010448.9921261c-212.331679 0-384.989552 172.7591719-384.989552 385.1109469v445.78598c0 212.351777 172.657873 385.110947 384.989552 385.110947 212.331682 0 384.989552-172.75917 384.989552-385.110947v-445.78598c0-212.349967-172.65787-385.1109469-384.989552-385.1109469zm-345.010448 595.3514049v-208.857724c0-190.502905 154.742303-345.485807 345.225373-345.485807 190.483067 0 345.225377 154.982902 345.225377 345.485807v235.547331h-.21493v208.857723c0 190.502909-154.7423 345.485809-345.225372 345.485809-190.48307 0-345.225373-154.9829-345.225373-345.485809v-235.54733zm-323.397683-284.629814-42.602317-42.606337 163.09983-163.115254 163.099829 163.115254-42.602316 42.606337-90.373135-90.381688v607.713595h-60.248757v-607.713595zm-113.9999998 568.610317-42.6023172 42.606337 163.09983 163.115249 163.099829-163.115249-42.602316-42.606337-90.373135 90.381687v-607.713595h-60.248756v607.713595zm782.5876708-691.337998c-29.050935 0-52.595958 23.332227-52.595958 52.120606v152.844034c0 28.788379 23.545023 52.120606 52.595958 52.120606 29.050938 0 52.595961-23.332227 52.595961-52.120606v-152.844034c0-28.788379-23.545023-52.120606-52.595961-52.120606z" transform="translate(7 4)"/></svg>