<?xml version="1.0" encoding="UTF-8"?>
<svg width="670px" height="815px" viewBox="0 0 670 815" version="1.1" xmlns="http://www.w3.org/2000/svg" xmlns:xlink="http://www.w3.org/1999/xlink">
    <!-- Generator: Sketch 52.6 (67491) - http://www.bohemiancoding.com/sketch -->
    <title>leftmouse</title>
    <desc>Created with Sketch.</desc>
    <g id="Page-1" stroke="none" stroke-width="1" fill="none" fill-rule="evenodd">
        <g id="leftmouse" fill="#000000" fill-rule="nonzero">
            <path d="M457,141.646 C339.525,141.646 244,237.218 244,354.693 L244,601.306 C244,718.781 339.525,814.353 457,814.353 C574.475,814.353 670,718.781 670,601.306 L670,354.693 C670,237.219 574.475,141.646 457,141.646 Z M648,601.307 C648,706.695 562.387,792.433 457,792.433 C351.613,792.433 266,706.695 266,601.307 L266,471 L648,471 L648,601.307 Z M648,449 L467,449 L467,163.846 C568,169.203 648,252.754 648,354.694 L648,449 Z M266,448.867978 L266,354.561978 C266,252.621978 346,169.070978 447,163.713978 L447,448.867978 L266,448.867978 Z M86.5702333,114.389076 L63,90.8188494 L153.2369,0.581956044 L243.4738,90.8188494 L219.903567,114.389076 L169.903567,64.389076 L169.903567,400.581956 L136.570233,400.581956 L136.570233,64.389076 L86.5702333,114.389076 Z M23.5702333,428.774836 L0,452.345063 L90.2369,542.581956 L180.4738,452.345063 L156.903567,428.774836 L106.903567,478.774836 L106.903567,142.581956 L73.5702333,142.581956 L73.5702333,478.774836 L23.5702333,428.774836 Z M457.099333,245.646 C441.026561,245.646 428,258.553608 428,274.47961 L428,359.034368 C428,374.96037 441.026561,387.867978 457.099333,387.867978 C473.172106,387.867978 486.198667,374.96037 486.198667,359.034368 L486.198667,274.47961 C486.198667,258.553608 473.172106,245.646 457.099333,245.646 Z" id="Shape"></path>
        </g>
    </g>
</svg>