<svg height="30" viewBox="0 0 24 30" width="24" xmlns="http://www.w3.org/2000/svg"><path d="m19.999039 17 .065178-1.4221802-1.0641-.5784609-1.000707.5784609-.000001 1.4221802h-1.00037l-.00074-2.0287476-.998923-.5778198-1.000707.5784609.00074 2.0281065h-1.00037l.000338-8.2828206-.99963-.5771794-1 .5778205-.000302 13.6576344-3.110663-5.3883339-1.154295-.0000371-.577115 1.0004073 1.826009 3.1630793.546169 2.6724963 3.469827 3.4698264v2.7071068h-1v-2.2928932l-3.38941-3.3894099-.573915-2.8082632-2.026052-3.5099891 1.154808-1.9998147 2.308012-.0009244 1.526641 2.6447308.000656-10.4889497 2-1.1544866 1.998869 1.1544865-.000741 5.6789457 1.001131-.5799999 1.999835 1.1859262 1.000906-.5799999 1.998803.9992661 1.00086-.5777393 1.99926 1.1532057.000337 6.8232429-2 5.3333333v2.4093327h-1v-2.5906673l1.999708-5.332555-.000045-6.0787129-.99963-.5771795-1 .5778206-.000001 1.0012941zm-16.499039-13.5857864-.707107-.7071068 2.707107-2.7071068 2.707107 2.7071068-.707107.7071068-1.5-1.5v10.0857864h-1v-10.0857864zm-2 10.1715728-.707107.7071068 2.707107 2.7071068 2.707107-2.7071068-.707107-.7071068-1.5 1.5v-10.0857864h-1v10.0857864z"/></svg>