<?xml version="1.0" encoding="UTF-8"?>
<svg width="29px" height="26px" viewBox="0 0 29 26" version="1.1" xmlns="http://www.w3.org/2000/svg" xmlns:xlink="http://www.w3.org/1999/xlink">
    <!-- Generator: Sketch 52.6 (67491) - http://www.bohemiancoding.com/sketch -->
    <title>swiperhor</title>
    <desc>Created with Sketch.</desc>
    <g id="Page-1" stroke="none" stroke-width="1" fill="none" fill-rule="evenodd">
        <g id="swiperhor" fill="#000000" fill-rule="nonzero">
            <g id="Group">
                <g id="Shape">
                    <path d="M24.9990394,13 L25.0642166,11.57782 L24.0001172,10.999359 L22.9994097,11.57782 L22.9994095,13 L21.9990394,13 L21.9982986,10.971252 L20.9993763,10.393433 L19.9986687,10.971894 L19.9994095,13 L18.9990394,13 L18.9993767,4.7171794 L17.9997467,4.14 L16.9997467,4.7178205 L16.9994453,18.375455 L13.8887818,12.987121 L12.7344872,12.987084 L12.1573721,13.987491 L13.9833815,17.150571 L14.5295502,19.823067 L17.9993767,23.292893 L17.9993767,26 L16.9993767,26 L16.9993767,23.707107 L13.6099668,20.317697 L13.0360519,17.509434 L11.0100002,13.999445 L12.1648077,11.99963 L14.4728204,11.998705 L15.9994614,14.643436 L16.0001168,4.1544866 L18.0001168,3 L19.9989862,4.1544865 L19.9982454,9.833432 L20.9993758,9.253432 L22.9992111,10.439359 L24.0001168,9.859359 L25.9989204,10.858625 L26.9997798,10.280885 L28.9990396,11.434091 L28.9993767,18.257334 L26.9993767,23.590667 L26.9993767,26 L25.9993767,26 L25.9993767,23.409333 L27.9990848,18.076778 L27.9990396,11.998065 L26.9994097,11.420885 L25.9994097,11.998706 L25.9994095,13 L24.9990394,13 Z M3.4142136,3.4971077 L2.7071068,2.7900009 L0,5.4971077 L2.7071068,8.204214 L3.4142136,7.497108 L1.9142136,5.9971077 L10,5.9971077 L10,4.9971077 L1.9142136,4.9971077 L3.4142136,3.4971077 Z M11.5857864,1.4971077 L12.2928932,0.7900009 L15,3.4971077 L12.2928932,6.204214 L11.5857864,5.4971077 L13.0857864,3.9971077 L5,3.9971077 L5,2.9971077 L13.0857864,2.9971077 L11.5857864,1.4971077 Z"></path>
                </g>
            </g>
        </g>
    </g>
</svg>