<?xml version="1.0" encoding="UTF-8"?>
<svg width="24px" height="30px" viewBox="0 0 24 30" version="1.1" xmlns="http://www.w3.org/2000/svg" xmlns:xlink="http://www.w3.org/1999/xlink">
    <!-- Generator: Sketch 52.6 (67491) - http://www.bohemiancoding.com/sketch -->
    <title>swiperver</title>
    <desc>Created with Sketch.</desc>
    <g id="Page-1" stroke="none" stroke-width="1" fill="none" fill-rule="evenodd">
        <g id="swiperver" fill="#000000" fill-rule="nonzero">
            <g id="Group">
                <g id="Shape">
                    <path d="M19.999039,17 L20.064217,15.5778198 L19.000117,14.9993589 L17.99941,15.5778198 L17.999409,17 L16.999039,17 L16.998299,14.9712524 L15.999376,14.3934326 L14.998669,14.9718935 L14.999409,17 L13.999039,17 L13.999377,8.7171794 L12.999747,8.14 L11.999747,8.7178205 L11.999445,22.3754549 L8.888782,16.987121 L7.734487,16.9870839 L7.157372,17.9874912 L8.983381,21.1505705 L9.52955,23.8230668 L12.999377,27.2928932 L12.999377,30 L11.999377,30 L11.999377,27.7071068 L8.609967,24.3176969 L8.036052,21.5094337 L6.01,17.9994446 L7.164808,15.9996299 L9.47282,15.9987055 L10.999461,18.6434363 L11.000117,8.1544866 L13.000117,7 L14.998986,8.1544865 L14.998245,13.8334322 L15.999376,13.2534323 L17.999211,14.4393585 L19.000117,13.8593586 L20.99892,14.8586247 L21.99978,14.2808854 L23.99904,15.4340911 L23.999377,22.257334 L21.999377,27.5906673 L21.999377,30 L20.999377,30 L20.999377,27.4093327 L22.999085,22.0767777 L22.99904,15.9980648 L21.99941,15.4208853 L20.99941,15.9987059 L20.999409,17 L19.999039,17 Z M3.5,3.4142136 L2.792893,2.7071068 L5.5,0 L8.207107,2.7071068 L7.5,3.4142136 L6,1.9142136 L6,12 L5,12 L5,1.9142136 L3.5,3.4142136 Z M1.5,13.5857864 L0.792893,14.2928932 L3.5,17 L6.207107,14.2928932 L5.5,13.5857864 L4,15.0857864 L4,5 L3,5 L3,15.0857864 L1.5,13.5857864 Z"></path>
                </g>
            </g>
        </g>
    </g>
</svg>