<svg height="26" viewBox="0 0 29 26" width="29" xmlns="http://www.w3.org/2000/svg"><path d="m24.9990394 13 .0651772-1.42218-1.0640994-.578461-1.0007075.578461-.0000002 1.42218h-1.0003701l-.0007408-2.028748-.9989223-.577819-1.0007076.578461.0007408 2.028106h-1.0003701l.0003373-8.2828206-.99963-.5771794-1 .5778205-.0003014 13.6576345-3.1106635-5.388334-1.1542946-.000037-.5771151 1.000407 1.8260094 3.16308.5461687 2.672496 3.4698265 3.469826v2.707107h-1v-2.292893l-3.3894099-3.38941-.5739149-2.808263-2.0260517-3.509989 1.1548075-1.999815 2.3080127-.000925 1.526641 2.644731.0006554-10.4889494 2-1.1544866 1.9988694 1.1544865-.0007408 5.6789455 1.0011304-.58 1.9998353 1.185927 1.0009057-.58 1.9988036.999266 1.0008594-.57774 1.9992598 1.153206.0003371 6.823243-2 5.333333v2.409333h-1v-2.590667l1.9997081-5.332555-.0000452-6.078713-.9996299-.57718-1 .577821-.0000002 1.001294zm-21.5848258-9.5028923-.7071068-.7071068-2.7071068 2.7071068 2.7071068 2.7071063.7071068-.707106-1.5-1.5000003h8.0857864v-1h-8.0857864zm8.1715728-2 .7071068-.7071068 2.7071068 2.7071068-2.7071068 2.7071063-.7071068-.7071063 1.5-1.5h-8.0857864v-1h8.0857864z"/></svg>