<?xml version="1.0" encoding="UTF-8"?>
<svg width="18px" height="26px" viewBox="0 0 18 26" version="1.1" xmlns="http://www.w3.org/2000/svg" xmlns:xlink="http://www.w3.org/1999/xlink">
    <!-- Generator: Sketch 52.6 (67491) - http://www.bohemiancoding.com/sketch -->
    <title>tap</title>
    <desc>Created with Sketch.</desc>
    <g id="Page-1" stroke="none" stroke-width="1" fill="none" fill-rule="evenodd">
        <g id="tap" fill="#000000" fill-rule="nonzero">
            <g id="Group">
                <g id="Shape">
                    <path d="M10.99852,6.9217961 L11,2.3064114 L7.00148,0 L3.0014804,2.3089732 L3,6.9243578 L4,7.5011741 L4.00111,2.8734616 L7.00111,1.14 L10,2.8715383 L10,7.4981848 L10.99852,6.9217961 Z M13.999039,13 L14.064217,11.5778198 L13.000117,10.9993589 L11.99941,11.5778198 L11.999409,13 L10.999039,13 L10.998299,10.9712524 L9.999376,10.3934326 L8.998669,10.9718935 L8.999409,13 L7.999039,13 L7.999377,4.7171794 L6.999747,4.14 L5.999747,4.7178205 L5.999445,18.3754549 L2.8887818,12.987121 L1.7344872,12.9870839 L1.1573721,13.9874912 L2.9833815,17.1505705 L3.5295502,19.8230668 L6.999377,23.2928932 L6.999377,26 L5.999377,26 L5.999377,23.7071068 L2.6099668,20.3176969 L2.0360519,17.5094337 L0.0100002,13.9994446 L1.1648077,11.9996299 L3.4728204,11.9987055 L4.999461,14.6434363 L5.000117,4.1544866 L7.000117,3 L8.998986,4.1544865 L8.998245,9.8334322 L9.999376,9.2534323 L11.999211,10.4393585 L13.000117,9.8593586 L14.99892,10.8586247 L15.99978,10.2808854 L17.99904,11.4340911 L17.999377,18.257334 L15.999377,23.5906673 L15.999377,26 L14.999377,26 L14.999377,23.4093327 L16.999085,18.0767777 L16.99904,11.9980648 L15.99941,11.4208853 L14.99941,11.9987059 L14.999409,13 L13.999039,13 Z"></path>
                </g>
            </g>
        </g>
    </g>
</svg>