<svg height="26" viewBox="0 0 18 26" width="18" xmlns="http://www.w3.org/2000/svg"><path d="m10.99852 6.9217961.00148-4.6153847-3.99852-2.3064114-3.9999996 2.3089732-.0014804 4.6153846 1 .5768163.00111-4.6277125 3-1.7334616 2.99889 1.7315383v4.6266465zm3.000519 6.0782039.065178-1.4221802-1.0641-.5784609-1.000707.5784609-.000001 1.4221802h-1.00037l-.00074-2.0287476-.998923-.5778198-1.000707.5784609.00074 2.0281065h-1.00037l.000338-8.2828206-.99963-.5771794-1 .5778205-.000302 13.6576344-3.1106632-5.3883339-1.1542946-.0000371-.5771151 1.0004073 1.8260094 3.1630793.5461687 2.6724963 3.4698268 3.4698264v2.7071068h-1v-2.2928932l-3.3894102-3.3894099-.5739149-2.8082632-2.0260517-3.5099891 1.1548075-1.9998147 2.3080127-.0009244 1.5266406 2.6447308.000656-10.4889497 2-1.1544866 1.998869 1.1544865-.000741 5.6789457 1.001131-.5799999 1.999835 1.1859262 1.000906-.5799999 1.998803.9992661 1.00086-.5777393 1.99926 1.1532057.000337 6.8232429-2 5.3333333v2.4093327h-1v-2.5906673l1.999708-5.332555-.000045-6.0787129-.99963-.5771795-1 .5778206-.000001 1.0012941z"/></svg>